#!OML:ASF E:\motion texture\Top Level 1\Subject 1\Session 1\male.ASF
:FULLY-SPECIFIED
:DEGREES
577
root -38.9117 17.9682 3.62313 120.942 -80.4652 -113.731
lowerback -1.36721 2.94693 6.50982
upperback 0.373301 3.67891 3.43566
thorax 1.33943 1.83301 -0.00155811
lowerneck -13.0547 -2.66409 -4.97823
upperneck 24.5695 -4.15631 4.4123
head 10.1727 -2.03411 1.84824
rclavicle -2.48481e-015 -5.56597e-015
rhumerus -20.8963 -13.061 -77.0487
rradius 27.5849
rwrist 15.6573
rhand -14.1552 -27.5783
rfingers 7.12502
rthumb 11.9794 -57.2155
lclavicle -2.48481e-015 -5.56597e-015
lhumerus -43.6013 25.5064 71.8864
lradius 22.5775
lwrist -41.5497
lhand -5.76591 18.9042
lfingers 7.12502
lthumb 20.0574 47.8889
rfemur -8.19632 0.168626 35.0464
rtibia 20.1734
rfoot -11.3042 -14.0407
rtoes 10.1789
lfemur -29.3128 1.25958 -5.56386
ltibia 37.5977
lfoot -6.86311 5.26733
ltoes -18.0518
578
root -39.0459 17.957 3.61304 122.002 -80.2862 -114.724
lowerback -1.45174 2.97076 6.56983
upperback 0.321288 3.70503 3.41298
thorax 1.33979 1.84567 -0.0539021
lowerneck -12.9931 -2.73545 -5.04967
upperneck 24.8604 -4.27695 4.42241
head 10.2748 -2.10209 1.84989
rclavicle 1.6847e-014 4.8901e-014
rhumerus -20.7526 -12.5622 -77.2722
rradius 28.1233
rwrist 15.1633
rhand -14.2207 -27.6084
rfingers 7.12502
rthumb 11.9163 -57.2492
lclavicle 1.6847e-014 4.8901e-014
lhumerus -43.9766 26.1604 71.4203
lradius 22.4955
lwrist -41.4175
lhand -5.80179 18.9985
lfingers 7.12502
lthumb 20.0229 47.9868
rfemur -7.90836 0.200797 35.1302
rtibia 20.4602
rfoot -11.5948 -13.886
rtoes 9.36476
lfemur -29.5931 1.14054 -5.44035
ltibia 35.9625
lfoot -7.05866 5.5355
ltoes -18.0183
579
root -39.1805 17.945 3.60345 122.975 -80.1091 -115.631
lowerback -1.53362 2.99005 6.62891
upperback 0.268312 3.72532 3.39132
thorax 1.33729 1.85528 -0.105044
lowerneck -12.9286 -2.7983 -5.11419
upperneck 25.1417 -4.38542 4.4256
head 10.3724 -2.16468 1.84938
rclavicle 1.11816e-014 3.77691e-014
rhumerus -20.6279 -12.077 -77.4891
rradius 28.667
rwrist 14.6851
rhand -14.2781 -27.6306
rfingers 7.12502
rthumb 11.8609 -57.2747
lclavicle 1.11816e-014 3.77691e-014
lhumerus -44.3262 26.7621 70.9894
lradius 22.4278
lwrist -41.2855
lhand -5.82141 19.0863
lfingers 7.12502
lthumb 20.004 48.0766
rfemur -7.63295 0.226497 35.2074
rtibia 20.7728
rfoot -11.8805 -13.7348
rtoes 8.51335
lfemur -29.8595 0.999612 -5.30948
ltibia 34.3327
lfoot -7.21878 5.80735
ltoes -17.9945
580
root -39.3155 17.9321 3.59437 123.907 -79.9285 -116.498
lowerback -1.61326 3.00798 6.68853
upperback 0.213738 3.74392 3.37098
thorax 1.33179 1.86389 -0.155319
lowerneck -12.8654 -2.85379 -5.17627
upperneck 25.4191 -4.48434 4.42893
head 10.4688 -2.22272 1.84964
rclavicle 3.52097e-014 3.77691e-015
rhumerus -20.516 -11.6064 -77.6993
rradius 29.202
rwrist 14.2269
rhand -14.3255 -27.6522
rfingers 7.12502
rthumb 11.8152 -57.2989
lclavicle 3.52097e-014 3.77691e-015
lhumerus -44.6511 27.3131 70.5921
lradius 22.3691
lwrist -41.1667
lhand -5.83752 19.1573
lfingers 7.12502
lthumb 19.9885 48.1493
rfemur -7.37081 0.25148 35.2795
rtibia 21.114
rfoot -12.1605 -13.5839
rtoes 7.62682
lfemur -30.1111 0.844417 -5.16838
ltibia 32.7205
lfoot -7.34746 6.08402
ltoes -17.9734
581
root -39.4511 17.9183 3.58581 124.786 -79.7481 -117.314
lowerback -1.69139 3.02412 6.74746
upperback 0.159684 3.76013 3.35144
thorax 1.32579 1.87124 -0.20453
lowerneck -12.8018 -2.90277 -5.23378
upperneck 25.6889 -4.5745 4.43009
head 10.5622 -2.27659 1.84939
rclavicle -3.98812e-014 -1.19271e-014
rhumerus -20.4195 -11.1539 -77.9021
rradius 29.7316
rwrist 13.7909
rhand -14.3638 -27.666
rfingers 7.12502
rthumb 11.7783 -57.3148
lclavicle -3.98812e-014 -1.19271e-014
lhumerus -44.9431 27.8042 70.2404
lradius 22.3246
lwrist -41.0495
lhand -5.84103 19.2172
lfingers 7.12502
lthumb 19.9852 48.2095
rfemur -7.11965 0.271923 35.3443
rtibia 21.4829
rfoot -12.4347 -13.4338
rtoes 6.71039
lfemur -30.3488 0.671505 -5.01922
ltibia 31.137
lfoot -7.44831 6.36297
ltoes -17.9439
582
root -39.5874 17.9036 3.57774 125.619 -79.5679 -118.088
lowerback -1.77018 3.03887 6.80473
upperback 0.105888 3.77433 3.33256
thorax 1.32018 1.87754 -0.252156
lowerneck -12.7357 -2.94512 -5.28582
upperneck 25.9523 -4.65606 4.42869
head 10.6525 -2.32641 1.84836
rclavicle 1.5704e-014 -1.45113e-014
rhumerus -20.3395 -10.7191 -78.0974
rradius 30.2522
rwrist 13.3783
rhand -14.3915 -27.6723
rfingers 7.12502
rthumb 11.7516 -57.3226
lclavicle 1.5704e-014 -1.45113e-014
lhumerus -45.2005 28.2334 69.9356
lradius 22.2933
lwrist -40.9347
lhand -5.83256 19.2606
lfingers 7.12502
lthumb 19.9933 48.252
rfemur -6.87997 0.287422 35.4015
rtibia 21.8813
rfoot -12.7031 -13.2831
rtoes 5.76599
lfemur -30.5739 0.482828 -4.86184
ltibia 29.5922
lfoot -7.52201 6.64411
ltoes -17.9103
583
root -39.7245 17.888 3.57016 126.421 -79.388 -118.833
lowerback -1.84876 3.05295 6.85976
upperback 0.0530505 3.78754 3.314
thorax 1.31524 1.88333 -0.298202
lowerneck -12.6746 -2.98251 -5.33145
upperneck 26.215 -4.73092 4.42265
head 10.7433 -2.3731 1.84533
rclavicle 1.13556e-014 3.16068e-014
rhumerus -20.2743 -10.3021 -78.2851
rradius 30.7588
rwrist 12.9914
rhand -14.4089 -27.6681
rfingers 7.12502
rthumb 11.7349 -57.3194
lclavicle 1.13556e-014 3.16068e-014
lhumerus -45.4205 28.5986 69.682
lradius 22.277
lwrist -40.8191
lhand -5.81236 19.291
lfingers 7.12502
lthumb 20.0127 48.2804
rfemur -6.65063 0.298211 35.4496
rtibia 22.3095
rfoot -12.9641 -13.1305
rtoes 4.7935
lfemur -30.7874 0.280616 -4.69768
ltibia 28.1081
lfoot -7.58215 6.92699
ltoes -17.8571
584
root -39.8626 17.8717 3.56309 127.19 -79.2061 -119.552
lowerback -1.92432 3.0664 6.91495
upperback 0.00160086 3.79999 3.29631
thorax 1.30997 1.88871 -0.343578
lowerneck -12.6099 -3.01112 -5.37587
upperneck 26.4712 -4.7948 4.42044
head 10.8308 -2.41436 1.84491
rclavicle 1.41634e-015 -7.95139e-016
rhumerus -20.2244 -9.90456 -78.4653
rradius 31.2505
rwrist 12.6346
rhand -14.4175 -27.6536
rfingers 7.12502
rthumb 11.7265 -57.3054
lclavicle 1.41634e-015 -7.95139e-016
lhumerus -45.6029 28.9002 69.4808
lradius 22.2771
lwrist -40.701
lhand -5.78227 19.3094
lfingers 7.12502
lthumb 20.0417 48.2957
rfemur -6.42855 0.302588 35.4902
rtibia 22.7685
rfoot -13.2165 -12.9736
rtoes 3.79779
lfemur -30.987 0.0683032 -4.52548
ltibia 26.6771
lfoot -7.61121 7.21538
ltoes -17.8182
585
root -40.0018 17.8544 3.55648 127.929 -79.0237 -120.249
lowerback -1.99959 3.07914 6.96849
upperback -0.0478477 3.81132 3.27918
thorax 1.30642 1.89355 -0.387449
lowerneck -12.5483 -3.0342 -5.41479
upperneck 26.7274 -4.85165 4.41552
head 10.9187 -2.45227 1.84343
rclavicle -1.96797e-014 1.37161e-014
rhumerus -20.1891 -9.5287 -78.638
rradius 31.7229
rwrist 12.3107
rhand -14.4115 -27.6317
rfingers 7.12502
rthumb 11.7323 -57.2831
lclavicle -1.96797e-014 1.37161e-014
lhumerus -45.7465 29.1373 69.3327
lradius 22.2942
lwrist -40.5782
lhand -5.74141 19.3181
lfingers 7.12502
lthumb 20.0809 48.3003
rfemur -6.21466 0.298377 35.5213
rtibia 23.2597
rfoot -13.4586 -12.8105
rtoes 2.78113
lfemur -31.1747 -0.150474 -4.34819
ltibia 25.314
lfoot -7.60719 7.50301
ltoes -17.7748
586
root -40.1422 17.8364 3.55035 128.645 -78.8411 -120.932
lowerback -2.07362 3.09174 7.02043
upperback -0.0931702 3.82231 3.26175
thorax 1.30634 1.89836 -0.430658
lowerneck -12.4867 -3.04886 -5.44796
upperneck 26.9801 -4.89788 4.41021
head 11.005 -2.48492 1.8422
rclavicle 1.63003e-014 -1.63003e-014
rhumerus -20.1655 -9.17213 -78.804
rradius 32.1728
rwrist 12.0152
rhand -14.3917 -27.6044
rfingers 7.12502
rthumb 11.7514 -57.2548
lclavicle 1.63003e-014 -1.63003e-014
lhumerus -45.847 29.3123 69.2381
lradius 22.3284
lwrist -40.4505
lhand -5.69114 19.3156
lfingers 7.12502
lthumb 20.1292 48.2928
rfemur -6.00626 0.285608 35.5411
rtibia 23.784
rfoot -13.6887 -12.6409
rtoes 1.74505
lfemur -31.3502 -0.367664 -4.17035
ltibia 24.0356
lfoot -7.55229 7.78937
ltoes -17.725
